<svg width="17" height="17" viewBox="0 0 17 17" fill="none" xmlns="http://www.w3.org/2000/svg">
<g id="Plus">
<path id="Vector" d="M15.1288 8.53979C15.13 8.7387 15.0522 8.92994 14.9124 9.07144C14.7726 9.21295 14.5823 9.29312 14.3834 9.29433L9.63346 9.32319L9.66232 14.0731C9.66353 14.272 9.58567 14.4632 9.44588 14.6048C9.30608 14.7463 9.1158 14.8264 8.91689 14.8276C8.71798 14.8289 8.52674 14.751 8.38524 14.6112C8.24373 14.4714 8.16356 14.2811 8.16235 14.0822L8.13349 9.3323L3.38358 9.36116C3.18467 9.36237 2.99343 9.28451 2.85192 9.14471C2.71042 9.00492 2.63024 8.81464 2.62904 8.61573C2.62783 8.41682 2.70568 8.22558 2.84548 8.08407C2.98527 7.94257 3.17556 7.8624 3.37447 7.86119L8.12438 7.83233L8.09552 3.08242C8.09431 2.88351 8.17217 2.69227 8.31196 2.55076C8.45176 2.40926 8.64204 2.32908 8.84095 2.32787C9.03986 2.32667 9.2311 2.40452 9.3726 2.54432C9.51411 2.68411 9.59428 2.87439 9.59549 3.0733L9.62435 7.82322L14.3743 7.79436C14.5732 7.79315 14.7644 7.87101 14.9059 8.0108C15.0474 8.1506 15.1276 8.34088 15.1288 8.53979Z" fill="#A855F7"/>
</g>
</svg>
