<svg width="40" height="22" viewBox="0 0 40 22" fill="none" xmlns="http://www.w3.org/2000/svg">
<g id="Rede">
<path d="M0.676276 4.76925L17.6155 19.5768C18.6745 20.5031 19.7354 20.9412 20.768 20.8772C22.2763 20.7815 23.2738 19.6355 23.2831 19.6249L39.2967 4.50072L40 5.07077L24.0359 20.1448C23.8723 20.3296 22.6919 21.5911 20.8472 21.7118C20.7528 21.7184 20.6591 21.7224 20.5641 21.7224C19.3349 21.7224 18.1163 21.2005 16.9379 20.1706L0 5.3624L0.676276 4.76925Z" fill="#CDA5F8"/>
<path d="M12.4507 6.34285C10.7767 6.34285 9.41968 4.9858 9.41968 3.31181C9.41968 1.63781 10.7767 0.280762 12.4507 0.280762C14.1247 0.280762 15.4818 1.63781 15.4818 3.31181C15.4818 4.9858 14.1247 6.34285 12.4507 6.34285Z" fill="#CDA5F8"/>
<path d="M22.1502 17.6581C22.1456 17.6634 22.141 17.67 22.1357 17.6733C22.0638 17.7445 21.9886 17.8112 21.9114 17.8719C21.753 18.0137 21.5947 18.1556 21.4363 18.2981C20.4552 19.1756 19.2069 18.7362 18.6256 17.9081C18.5135 17.8303 18.4053 17.7478 18.3037 17.6535C16.4464 15.9552 14.5884 14.2556 12.7331 12.5553C12.6276 12.4986 12.5233 12.4313 12.4224 12.3416C10.1336 10.2936 7.84479 8.24628 5.55798 6.19832C4.16518 4.9533 6.21644 2.91655 7.60199 4.15497C9.24617 5.62562 10.889 7.09628 12.5332 8.56694C12.5418 8.55968 12.5477 8.55044 12.5556 8.54252C13.6456 7.46708 15.299 7.56605 16.389 8.56298C18.1235 10.1484 19.8561 11.7346 21.5887 13.3187C24.8817 10.3708 28.1747 7.42287 31.467 4.47562C33.1956 2.92645 35.7602 5.47255 34.0204 7.0303C30.063 10.574 26.1069 14.1157 22.1502 17.6581Z" fill="#CDA5F8"/>
</g>
</svg>
